<svg width="57" height="44" viewBox="0 0 57 44" fill="none" xmlns="http://www.w3.org/2000/svg">
<path d="M0 2H3.57978V20.5915H9.47013V23.6901H0V2ZM18.0209 24C16.2852 24 14.9618 23.5352 14.0506 22.6056C13.1394 21.6554 12.6838 20.3023 12.6838 18.5465V2H16.2636V18.7944C16.2636 19.538 16.4154 20.0752 16.7192 20.4056C17.0446 20.7361 17.5002 20.9014 18.086 20.9014C18.6718 20.9014 19.1165 20.7361 19.4203 20.4056C19.7457 20.0752 19.9084 19.538 19.9084 18.7944V2H23.358V18.5465C23.358 20.3023 22.9024 21.6554 21.9912 22.6056C21.08 23.5352 19.7566 24 18.0209 24ZM30.2374 2H35.0864L36.9414 12.8451L38.7963 23.6901H35.2166L34.5657 19.3831V19.4451H30.4978L29.8469 23.6901H26.5275L30.2374 2ZM34.1426 16.5014L32.548 5.78028H32.4829L30.9208 16.5014H34.1426ZM42.1602 2H47.2695L49.5476 17.5239H49.6126L51.8907 2H57V23.6901H53.6155V7.26761H53.5505L50.9469 23.6901H47.9529L46.6512 15.4789L45.3495 7.26761H45.2844V23.6901H42.1602V2Z" fill="white"/>
<path d="M18.64 33.992V32.808L23.536 30.696V31.976L20.16 33.4L23.536 34.824V36.104L18.64 33.992ZM28.9663 27.8H30.4863L26.0703 39H24.5503L28.9663 27.8ZM31.489 34.824L34.865 33.4L31.489 31.976V30.696L36.385 32.808V33.992L31.489 36.104V34.824Z" fill="white"/>
</svg>
