<svg width="500" height="500" viewBox="0 0 500 500" fill="none" xmlns="http://www.w3.org/2000/svg">
<rect width="500" height="500" rx="5" fill="url(#paint0_radial_7_83)"/>
<g filter="url(#filter0_d_7_83)">
<path d="M100 230.854C100.917 220.404 103.472 216.972 113.249 217.062C121.43 216.562 124.137 218.999 126.498 226.913V269.272C126.304 276.409 122.88 279.11 111.357 282.016C104.78 282.163 101.786 281.016 100 272.227V230.854Z" fill="#FE0042" stroke="#FE0042"/>
<path d="M107.571 228.821C108.661 225.607 109.926 224.774 113.249 224.881C116.429 225.461 117.565 226.689 118.927 229.806V267.239C118.369 271.852 116.475 272.942 112.303 274.135C109.412 274.048 108.096 273.464 107.571 269.21V228.821Z" fill="#1E1D1D" stroke="#FE0042"/>
<path d="M220.189 217H205.994V268.224L220.189 267.239C226.466 267.383 228.418 264.405 230.599 257.388V253.447V245.567C229.756 242.365 228.933 240.881 225.867 239.657C228.894 238.216 229.96 236.534 230.599 231.776V226.851C228.501 220.247 226.739 217.365 220.189 217Z" fill="#FE0042" stroke="#FE0042"/>
<path d="M216.972 222.91H211.672V236.702H219.621C223.249 236.313 224.739 235.559 224.921 231.776V227.836C223.12 224.33 221.404 223.228 216.972 222.91Z" fill="#352626" stroke="#FE0042"/>
<path d="M218.297 244.582H211.672V260.343H218.297C222.354 260.002 224.208 259.466 224.921 256.402V248.522C224.037 245.793 222.777 244.799 218.297 244.582Z" fill="#352626" stroke="#FE0042"/>
<path d="M240.062 217V266.253H249.528V217H240.062Z" fill="#FE0042" stroke="#FE0042"/>
<path d="M283.596 217H257.097V223.895H266.562V267.239L274.133 267.511V223.895H283.596V217Z" fill="#FE0042" stroke="#FE0042"/>
<path d="M313.879 217H291.167V267.239L300.631 268.224V245.567H311.041V237.686H300.631V223.895H313.879V217Z" fill="#FE0042" stroke="#FE0042"/>
<path d="M330.916 217H321.451V271.178L343.218 273.149V264.284L330.916 263.298V217Z" fill="#FE0042" stroke="#FE0042"/>
<path d="M361.199 217H351.736V274.135L361.199 275.629V217Z" fill="#FE0042" stroke="#FE0042"/>
<path d="M378.233 217H369.717L379.18 246.553L368.77 277.09L379.18 279.059L383.912 257.388L389.59 280.045L400 283L389.59 246.553L397.161 217H389.59L384.857 235.716L378.233 217Z" fill="#FE0042" stroke="#FE0042"/>
<path d="M135.962 274.135V217H147.319L154.889 247.537V217H162.461V271.178L152.997 272.165L143.533 234.731V273.306L135.962 274.135Z" fill="#FE0042" stroke="#FE0042"/>
<path d="M196.53 217H173.817V270.194L196.53 269.21V262.314H181.388V246.553H192.744V238.673H181.388V224.881H196.53V217Z" fill="#FE0042" stroke="#FE0042"/>
</g>
<defs>
<filter id="filter0_d_7_83" x="94.5" y="216.5" width="311.227" height="77.2262" filterUnits="userSpaceOnUse" color-interpolation-filters="sRGB">
<feFlood flood-opacity="0" result="BackgroundImageFix"/>
<feColorMatrix in="SourceAlpha" type="matrix" values="0 0 0 0 0 0 0 0 0 0 0 0 0 0 0 0 0 0 127 0" result="hardAlpha"/>
<feOffset dy="5"/>
<feGaussianBlur stdDeviation="2.5"/>
<feComposite in2="hardAlpha" operator="out"/>
<feColorMatrix type="matrix" values="0 0 0 0 0.412773 0 0 0 0 0.0247711 0 0 0 0 0.0247711 0 0 0 0.5 0"/>
<feBlend mode="normal" in2="BackgroundImageFix" result="effect1_dropShadow_7_83"/>
<feBlend mode="normal" in="SourceGraphic" in2="effect1_dropShadow_7_83" result="shape"/>
</filter>
<radialGradient id="paint0_radial_7_83" cx="0" cy="0" r="1" gradientUnits="userSpaceOnUse" gradientTransform="translate(250 250) rotate(90) scale(226)">
<stop stop-color="#2E2E2E"/>
<stop offset="1" stop-color="#141414"/>
</radialGradient>
</defs>
</svg>
