<svg width="220" height="220" viewBox="0 0 220 220" fill="none" xmlns="http://www.w3.org/2000/svg">
<rect width="220" height="220" fill="url(#paint0_radial_3_19)"/>
<g filter="url(#filter0_d_3_19)">
<path d="M30 100.347C30.4893 94.8052 31.8517 92.9852 37.0662 93.0331C41.4291 92.7678 42.873 94.0603 44.1325 98.257V120.72C44.0287 124.505 42.2028 125.937 36.0568 127.478C32.5494 127.556 30.9523 126.948 30 122.287V100.347Z" fill="#FE0042" stroke="#FE0042"/>
<path d="M34.0379 99.2687C34.6194 97.5645 35.2939 97.1226 37.0662 97.1791C38.762 97.4867 39.3682 98.1379 40.0946 99.791V119.642C39.7969 122.088 38.7869 122.666 36.5615 123.299C35.0199 123.253 34.3178 122.943 34.0379 120.687V99.2687Z" fill="#222222" stroke="#FE0042"/>
<path d="M94.1009 93H86.53V120.164L94.1009 119.642C97.4488 119.718 98.4895 118.139 99.653 114.418V112.328V108.149C99.2033 106.451 98.7643 105.664 97.1293 105.015C98.7432 104.251 99.3121 103.359 99.653 100.836V98.2239C98.5341 94.7218 97.5941 93.1938 94.1009 93Z" fill="#FE0042" stroke="#FE0042"/>
<path d="M92.3849 96.1343H89.5584V103.448H93.7981C95.733 103.242 96.5273 102.842 96.6246 100.836V98.7463C95.664 96.8871 94.7487 96.3025 92.3849 96.1343Z" fill="#242424" stroke="#FE0042"/>
<path d="M93.0915 107.627H89.5584V115.985H93.0915C95.2557 115.804 96.2443 115.52 96.6246 113.895V109.716C96.1533 108.269 95.481 107.742 93.0915 107.627Z" fill="#252525" stroke="#FE0042"/>
<path d="M104.7 93V119.119H109.748V93H104.7Z" fill="#FE0042" stroke="#FE0042"/>
<path d="M127.918 93H113.785V96.6567H118.833V119.642L122.871 119.786V96.6567H127.918V93Z" fill="#FE0042" stroke="#FE0042"/>
<path d="M144.069 93H131.956V119.642L137.003 120.164V108.149H142.555V103.97H137.003V96.6567H144.069V93Z" fill="#FE0042" stroke="#FE0042"/>
<path d="M153.155 93H148.107V121.731L159.716 122.776V118.075L153.155 117.552V93Z" fill="#FE0042" stroke="#FE0042"/>
<path d="M169.306 93H164.259V123.299L169.306 124.091V93Z" fill="#FE0042" stroke="#FE0042"/>
<path d="M178.391 93H173.849L178.896 108.672L173.344 124.866L178.896 125.91L181.42 114.418L184.448 126.433L190 128L184.448 108.672L188.486 93H184.448L181.924 102.925L178.391 93Z" fill="#FE0042" stroke="#FE0042"/>
<path d="M49.1798 123.299V93H55.2366L59.2744 109.194V93H63.3123V121.731L58.265 122.254L53.2177 102.403V122.859L49.1798 123.299Z" fill="#FE0042" stroke="#FE0042"/>
<path d="M81.4826 93H69.3691V121.209L81.4826 120.687V117.03H73.4069V108.672H79.4637V104.493H73.4069V97.1791H81.4826V93Z" fill="#FE0042" stroke="#FE0042"/>
</g>
<defs>
<filter id="filter0_d_3_19" x="24.5" y="92.5" width="171.229" height="46.2252" filterUnits="userSpaceOnUse" color-interpolation-filters="sRGB">
<feFlood flood-opacity="0" result="BackgroundImageFix"/>
<feColorMatrix in="SourceAlpha" type="matrix" values="0 0 0 0 0 0 0 0 0 0 0 0 0 0 0 0 0 0 127 0" result="hardAlpha"/>
<feOffset dy="5"/>
<feGaussianBlur stdDeviation="2.5"/>
<feComposite in2="hardAlpha" operator="out"/>
<feColorMatrix type="matrix" values="0 0 0 0 0.412773 0 0 0 0 0.0247711 0 0 0 0 0.0247711 0 0 0 0.5 0"/>
<feBlend mode="normal" in2="BackgroundImageFix" result="effect1_dropShadow_3_19"/>
<feBlend mode="normal" in="SourceGraphic" in2="effect1_dropShadow_3_19" result="shape"/>
</filter>
<radialGradient id="paint0_radial_3_19" cx="0" cy="0" r="1" gradientUnits="userSpaceOnUse" gradientTransform="translate(110 110) rotate(90) scale(110)">
<stop stop-color="#2C2C2C"/>
<stop offset="1" stop-color="#171717"/>
</radialGradient>
</defs>
</svg>
